/* XPM */
static char *dc08e5712d7a44c581ded9d9931c2e8bvHhrgps4Vu1ymy7u[] = {
/* columns rows colors chars-per-pixel */
"50 50 101 2 ",
"   c #050503",
".  c #060604",
"X  c #070705",
"o  c #060503",
"O  c #070604",
"+  c #050402",
"@  c #040402",
"#  c #030301",
"$  c #040403",
"%  c #040404",
"&  c #030304",
"*  c gray1",
"=  c #020202",
"-  c #040301",
";  c #030402",
":  c #020200",
">  c #020201",
",  c #030302",
"<  c #010101",
"1  c #030200",
"2  c #010100",
"3  c #010102",
"4  c #030300",
"5  c #020203",
"6  c black",
"7  c #020302",
"8  c #030202",
"9  c #050301",
"0  c #020100",
"q  c #040401",
"w  c #030201",
"e  c #040300",
"r  c #040200",
"t  c #050200",
"y  c #050201",
"u  c #030100",
"i  c #040302",
"p  c #020101",
"a  c #050401",
"s  c #050602",
"d  c #090401",
"f  c #070502",
"g  c #070501",
"h  c #0A0401",
"j  c #0B0502",
"k  c #0B0602",
"l  c #060501",
"z  c #050601",
"x  c #0B0402",
"c  c #0A0502",
"v  c #080401",
"b  c #080301",
"n  c #090301",
"m  c #040501",
"M  c #070402",
"N  c #060403",
"B  c #060502",
"V  c #060401",
"C  c #040502",
"Z  c #0A0301",
"A  c #090403",
"S  c #070405",
"D  c #030401",
"F  c #060402",
"G  c #030002",
"H  c #030102",
"J  c #090803",
"K  c #0A0905",
"L  c #0B0A06",
"P  c #0A0B06",
"I  c #0D0905",
"U  c #0B0906",
"Y  c #0E0805",
"T  c #0D0805",
"R  c #0E0906",
"E  c #0F0A07",
"W  c #0F0805",
"Q  c #0C0805",
"!  c #0E0705",
"~  c #0B0704",
"^  c #0B0603",
"/  c #080804",
"(  c #0A0704",
")  c #080706",
"_  c #090806",
"`  c #090805",
"'  c #080703",
"]  c #090703",
"[  c #090804",
"{  c #080803",
"}  c #0B0703",
"|  c #0E0704",
" . c #100904",
".. c #0E0A06",
"X. c #0C0A09",
"o. c #0B0A07",
"O. c #090904",
"+. c #080503",
"@. c #040201",
"#. c #040203",
"$. c white",
/* pixels */
"  .   . .     X     o O +       @ @ @ @     # # @ $ % % $ @ @ @ .   @ @ @ @ % & % % * * * % = = = = ",
"# @ # @ @ # @   @ - + + - ; @ # : # @ : # # # # : > = = = : : : # : : : : : , = = * * < = = = = = = ",
": : : # # : : : : : 1 1 1 : : : : : # : : : : : : > = = > : 2 2 : : : : : : > = = = = = = < < < < < ",
": : : # # : : : : : 1 1 1 : : : : : 2 : : : : : : > = = > : 2 2 : : : : : : > = = = = = = < < < < < ",
": : : : : # : : : : : : : : : : : : : = = = = = = > < = = < = = = = = : : : < < < = = < < < < < < < ",
": : : : : # : : : : : : : : : : : : : = = = = = = = < = = < = = = = = : : : < < < = = < < < < < < < ",
": : : : : : : : : : : : : : : : : : : = = = < < = = = = = < = = = < < : : : > = = = = = = < < < < < ",
": : : : : : : : : : : : : : : : : : : = = = < < = = = = = < = = = 3 < : : : = = = = = = = < < < < < ",
"= = = # # : : : : 4 : : : : : : : : : = = = = = < = = = = < = = = = = = = = = = = = = = = < < < < < ",
"= = = # # : : : : : : : : : : : : : : = = = = = < < = = = < = = = = = = = = = = = = = = = < < < < < ",
"= 5 = : : : # # : : : : : : : : : : : = = = < < < 3 = = = < = = = = = = = = = = = < < = = < < < < < ",
"= = = : : : # # : : : : : : : : : : : = = = < < < > = = = < = = = = = = = = = = = < < = = < < < < < ",
": : : : : : 2 > : : : : : : : : = = = = = = = = = > : : > = < < = = = = = = = = < < < < < = < < < < ",
": : : : : : : : : : : : : : : : = = = = = = = = = > : : > = < < = = = = = = = = < < < < < = < < < < ",
": : : : : # : : : : : : : : : : = = = = = = = = = > : : > = = = = = = = = = = = < < < = * = < < < < ",
": : : : : # : : : : : : : : : : = = = = = = = = = > : : > = = = = = = = = = = = < < < = = = < < < < ",
"= = = : : : # # : : : : : : : : = = = = = = > : : > = = = = = = < = = = = = < < = < < < < < < < < < ",
"= = = : : : # # : : : : : : : : = = = = = = > : : > = = = = = = * = = = = = < < = < < < < < < < < < ",
"= = = : : : : : : : : : : : : : = = = = = = > : : > = = = = = = = = = = = = < < = < < < < < < < < < ",
"= = = : : : : : : : : : : : : : = = = = = = > : : > = = = = = = = = = = = = < < = < < < < < < < < < ",
"= = * > : : : : : : : : : : : : = = = : : : : : : > = = = = = = = = = = = = = = = < < < < < < < < < ",
"= = * > : : : : : : : : : : : : = = = : : : : : : > = = = = = = = = = = = = = = = = < < < < < < < < ",
"= = = : : # : : : : : : : : : : = = = : : : : : : > 3 = = = = = = = = = = = < < = = = < 6 < < < < < ",
"= = = : : # : : : : : : : : : > = = = : : : : : : > * = = = = = = = = = = = < < = = = < < < < < < < ",
": : # : : # : : : : : : > = = , : : : : : : : : : > = = > : : : : 2 : : : : > = = = = = = = < < < = ",
": : # : : # : : : : : : > = 3 < : : : : : : : : : > = = > : : : : : : : : : > = = = = = = = < < < < ",
": : : > : # # # : : : 2 # = = = : : : : : : : : : > = = > : : : : : : : : : > = = = = < < < < < < < ",
": : : # : # : # : : : : > = = = : : : : : : : : : > = = > : : : : : : : : : > = = = = < < < < < < < ",
": : : # # : : : # # : : : : : : : : : : : : : : : : : # : : : : : : : : : : > = = = = < < < < < < < ",
": : : # # : : : # # : : : : : : : : : : : : : : : : : 2 2 : : : : : : : : : > = = = = < < < < < < < ",
": : : # # # # # # # # # # : : : @ : : # # : : : : : : : : : # # : : : : : : > = = = = < < < < < < < ",
": : : # # # # # # # # # # : : : # : : # > : : : : : : : : : # # : : : : : : > = = = = < < < < < < < ",
": : : : # # # # # : : # # : # # : : : 2 : : : : : > = = > : : : : : : : : : > = = > : : > = < < < < ",
": : : : # # # # @ # : # # : # # : : : # # : : : : > = = > : : : : : : : : : > = = > : : > = < < < < ",
": : # # # # # # # @ # # # : # # : : : # # # : : # 7 = = > : : : : : : : : : = = = > : : > < < < < < ",
": # # # # # # # # # # # # : # # : : : # # # : : # # = = > : : : : : : : : : > = = > : : > < < < < < ",
": # # # # # # # # # # # @ # # # 1 1 - # # # # # : 4 1 - - # : : @ : : > 2 : : : : : : 2 < = < < < < ",
"2 : # @ @ # # # # # # # # # # # 1 - - # # # # # : # 1 - - # : : # : : # : : : : : : : 2 < = < < < < ",
": : # # # @ # # # # # # # # # # - - - @ : : : : # - - - - # : : # : : # # # # : : 4 : : > = = = < < ",
": : # # # : # # # # # # # # # # - - - @ : : : : # # - - - # : : # # : # # # > 2 : > > : > = = = < < ",
": : # # # # # + - # # # # + - - - - - @ # # # # : # # # # # # # # # # 1 1 - 8 = = = = = = = < < < < ",
": : # # # # # 9 - # # # # + - - - - - - # # # # @ @ # # # # # # # # # 1 1 - = = = = = = = = < < < < ",
": : # # # # # + - # # # # - - - - + - # # # : @ @ # # # # : # # # : : - - 0 = = = = = = = = = = < < ",
": : # # # # # - - - # # # - - - - - - # # # # q > # # # # : # # # : : - - - w = = = = = = = = = < < ",
"# @ # : # # # - - + - - - 1 - - - - - - - - # # # - - - - # : : # : : - - - : : : > = = = = < < < < ",
"# # # @ @ # # - - 9 - - - + - - - - - - - - # # # - - - - # : : # : : - - - 1 : : > = = = = < < < < ",
"@ # # @ @ @ @ - - + - - - - - + - - - - - - # # # # - - - # # # # # : - - e # # : > = = = = < < < = ",
"# : 1 # - q - r r 9 t 9 9 - 1 - 9 9 - 9 y y - # - - - - - # # # # : u t 9 i # : : > = = = = p < < p ",
"a + o s d f g h d d d j k d l z x c g v b n a m b M + N B l V l C 9 b Z A S $ D q + F a - i 1 0 G H ",
"J K L P I L U Y T R R R E W Q L ! T L ~ ^ ^ J / ~ ( ) _ ` ' ] [ { } |  ...X.o.O.O.( ^ ^ +.O o @.#.8 "
};
